<?xml version="1.0" encoding="UTF-8"?>
<svg viewBox="0 0 430 317" xmlns="http://www.w3.org/2000/svg">

<path fill="#00acee" d="M353,317H318V67L215,142,112,67V317H77V164c-12.665-9-28.335-21-41-30V285L0,260C0.333,195.006,0,123.667,0,66c77.82,55.935,52.336,37.668,78,56,0.333-40.329-.333-81.671,0-122,45.329,33,91.671,67,137,100C260.329,67,306.671,33,352,0h0V122c25.664-18.332,52.336-37.668,78-56h0V260c0.082,0.169.171,0.294,0,0-11.332,7.666-24.668,17.334-36,25V134l-41,30V317ZM198,160h34v31H198V160Zm0,47h34V317H198V207Z"/>
</svg>