<svg id="Calque_1" data-name="Calque 1" xmlns="http://www.w3.org/2000/svg" viewBox="0 0 1921 1081"><defs><style>.cls-1{fill:#eeb81d;stroke:#1d1d1b;stroke-miterlimit:10;}.cls-2{fill:#fff;}</style></defs><title>etapes</title><rect class="cls-1" x="0.5" y="0.5" width="1920" height="1080"/><path class="cls-2" d="M440.71,558.8v10.4H397.1v-70h10.8v59.6Z" transform="translate(-1.06 2.06)"/><path class="cls-2" d="M457,569.2v-70h44.11v10.4H467.8v18.5h27.81v10.4H467.8v20.3h33.31v10.4Z" transform="translate(-1.06 2.06)"/><path class="cls-2" d="M521,548.1a38.45,38.45,0,0,0,8.55,9.15q4.46,3.25,11.55,3.25a19.33,19.33,0,0,0,6.5-1.1,12.74,12.74,0,0,0,5.1-3.2,7,7,0,0,0,2-5,8.84,8.84,0,0,0-4.25-7.8q-4.25-2.8-12-4.3-9.79-2-15.6-7t-5.8-14.35a16.69,16.69,0,0,1,3.35-10.4,22,22,0,0,1,8.85-6.8,29.46,29.46,0,0,1,11.9-2.4,30,30,0,0,1,14.3,3.2,23.26,23.26,0,0,1,9.4,9.1l-7.6,7.5a23,23,0,0,0-6.8-7.3,16.57,16.57,0,0,0-9.6-2.8,16.08,16.08,0,0,0-9.25,2.55,8.75,8.75,0,0,0,.2,14.5,34.94,34.94,0,0,0,10.45,3.75,48.75,48.75,0,0,1,11.2,3.7,25.26,25.26,0,0,1,8.65,6.45,14.24,14.24,0,0,1,3.35,9.55q0,10-6.8,15.9T540,570.2a33.64,33.64,0,0,1-14.75-3.2,30.36,30.36,0,0,1-11.65-10.4Z" transform="translate(-1.06 2.06)"/><path class="cls-2" d="M608.8,569.2v-70h44.1v10.4H619.6v18.5h27.8v10.4H619.6v20.3h33.3v10.4Z" transform="translate(-1.06 2.06)"/><path class="cls-2" d="M683.5,569.2V509.6H663.9V499.2h50.6v10.4H694.3v59.6Z" transform="translate(-1.06 2.06)"/><path class="cls-2" d="M769,569.2l-6.6-17.4H733.1l-6.6,17.4h-11l27.1-70h11l26.9,70Zm-26.6-41.8-5.3,14h21.4L753,527q-1.29-3.5-2.6-7.55l-2.6-8.15q-1.39,4.2-2.75,8.4T742.4,527.4Z" transform="translate(-1.06 2.06)"/><path class="cls-2" d="M821.3,499.2a19.47,19.47,0,0,1,10.3,2.85,21.22,21.22,0,0,1,7.5,7.7,21.45,21.45,0,0,1,2.8,11,21.82,21.82,0,0,1-2.8,10.95,21.34,21.34,0,0,1-7.5,7.85,19.24,19.24,0,0,1-10.3,2.9H803.6v26.8H792.8v-70Zm-.2,32.8a8.32,8.32,0,0,0,4.9-1.55,11.44,11.44,0,0,0,3.55-4.1,11.88,11.88,0,0,0,1.35-5.65,11.3,11.3,0,0,0-2.9-7.9,9,9,0,0,0-6.9-3.2H803.6V532Z" transform="translate(-1.06 2.06)"/><path class="cls-2" d="M856.2,569.2v-70h44.1v10.4H867v18.5h27.8v10.4H867v20.3h33.3v10.4Z" transform="translate(-1.06 2.06)"/><path class="cls-2" d="M920.2,548.1a38.05,38.05,0,0,0,8.55,9.15q4.46,3.25,11.55,3.25a19.37,19.37,0,0,0,6.5-1.1,12.74,12.74,0,0,0,5.1-3.2,7,7,0,0,0,2-5,8.86,8.86,0,0,0-4.25-7.8q-4.24-2.8-11.95-4.3-9.8-2-15.6-7t-5.8-14.35a16.69,16.69,0,0,1,3.35-10.4,21.84,21.84,0,0,1,8.85-6.8,29.43,29.43,0,0,1,11.9-2.4,30,30,0,0,1,14.3,3.2,23.32,23.32,0,0,1,9.4,9.1l-7.6,7.5a23.14,23.14,0,0,0-6.8-7.3,16.57,16.57,0,0,0-9.6-2.8,16.06,16.06,0,0,0-9.25,2.55,8.75,8.75,0,0,0,.2,14.5,34.84,34.84,0,0,0,10.45,3.75,48.91,48.91,0,0,1,11.2,3.7,25.36,25.36,0,0,1,8.65,6.45,14.29,14.29,0,0,1,3.35,9.55q0,10-6.8,15.9t-18.7,5.9a33.61,33.61,0,0,1-14.75-3.2,30.29,30.29,0,0,1-11.65-10.4Z" transform="translate(-1.06 2.06)"/><path class="cls-2" d="M1035.4,499.2a34.67,34.67,0,0,1,14.25,2.75,28.33,28.33,0,0,1,10.25,7.6,33.45,33.45,0,0,1,6.2,11.2,42.56,42.56,0,0,1,2.1,13.45,41,41,0,0,1-3.7,17.55,29.93,29.93,0,0,1-11,12.7q-7.3,4.75-18.1,4.75H1008v-70Zm-.5,59.6q7.9,0,12.8-3.35a19.59,19.59,0,0,0,7.2-9,33.77,33.77,0,0,0,0-24.5,19.93,19.93,0,0,0-7.2-9q-4.9-3.4-12.8-3.4h-16.1v49.2Z" transform="translate(-1.06 2.06)"/><path class="cls-2" d="M1093.1,507.7a13.19,13.19,0,0,1-2,7.1,20.24,20.24,0,0,1-5.35,5.7,23.18,23.18,0,0,1-6.9,3.5l-3.8-4.6a24.76,24.76,0,0,0,6.4-4.1c1.67-1.53,2.5-2.87,2.5-4a3.21,3.21,0,0,0-1.05-2.4,28.8,28.8,0,0,0-2.35-2,16.4,16.4,0,0,1-2.35-2.2,4.39,4.39,0,0,1-1.05-3,4.7,4.7,0,0,1,1.75-3.9,6.77,6.77,0,0,1,4.35-1.4,9.78,9.78,0,0,1,6.8,2.9Q1093.11,502.2,1093.1,507.7Z" transform="translate(-1.06 2.06)"/><path class="cls-2" d="M1162.3,499.1v43.2a27.57,27.57,0,0,1-3.65,14.15,26.22,26.22,0,0,1-10,9.8,31.49,31.49,0,0,1-29.05,0,26,26,0,0,1-10-9.8,27.57,27.57,0,0,1-3.65-14.15V499.1h10.8v42.3a17.8,17.8,0,0,0,8.9,15.7,16.83,16.83,0,0,0,8.5,2.3,17.92,17.92,0,0,0,8.9-2.3,17.49,17.49,0,0,0,6.55-6.4,17.79,17.79,0,0,0,2.45-9.3V499.1Z" transform="translate(-1.06 2.06)"/><path class="cls-2" d="M1229.8,499.2h10.8v70h-9.9L1190,515.8q.6,6.11,1.15,12.15t.55,12.15v29.1h-10.8v-70h9.7l40.7,54.5q-.9-7.31-1.2-15.75t-.3-15.75Z" transform="translate(-1.06 2.06)"/><path class="cls-2" d="M1288.2,569.2v-70h45.4v10.4H1299V529h30.1v10.4H1299v29.8Z" transform="translate(-1.06 2.06)"/><path class="cls-2" d="M1379.2,569.2h-33.4v-10h11.3v-50h-11.3v-10h33.4v10h-11.3v50h11.3Z" transform="translate(-1.06 2.06)"/><path class="cls-2" d="M1439.8,558.8v10.4h-43.6v-70H1407v59.6Z" transform="translate(-1.06 2.06)"/><path class="cls-2" d="M1466.7,499.2l22.9,37.3,23.3-37.3h10v70h-10.8V540.5q0-6.3.25-12t.85-11.25l-20.6,31.8H1486l-20.1-31.7c.4,3.73.66,7.47.8,11.2s.2,7.7.2,11.9v28.7h-10.8v-70Z" transform="translate(-1.06 2.06)"/></svg>