<svg id="Calque_1" data-name="Calque 1" xmlns="http://www.w3.org/2000/svg" viewBox="0 0 1921 1081"><defs><style>.cls-1{fill:#eeb81d;stroke:#1d1d1b;stroke-miterlimit:10;}.cls-2{fill:#fff;}</style></defs><title>metiers</title><rect class="cls-1" x="0.5" y="0.5" width="1920" height="1080"/><path class="cls-2" d="M197.31,558.8v10.4h-43.6v-70H164.5v59.6Z" transform="translate(-1.06 2.06)"/><path class="cls-2" d="M213.61,569.2v-70h44.1v10.4h-33.3v18.5h27.8v10.4h-27.8v20.3h33.3v10.4Z" transform="translate(-1.06 2.06)"/><path class="cls-2" d="M277.61,548.1a38.05,38.05,0,0,0,8.55,9.15q4.44,3.25,11.55,3.25a19.42,19.42,0,0,0,6.5-1.1,12.77,12.77,0,0,0,5.09-3.2,7,7,0,0,0,2-5,8.84,8.84,0,0,0-4.25-7.8q-4.24-2.8-11.94-4.3-9.81-2-15.61-7t-5.79-14.35a16.68,16.68,0,0,1,3.34-10.4,21.94,21.94,0,0,1,8.86-6.8,29.38,29.38,0,0,1,11.89-2.4,30.05,30.05,0,0,1,14.31,3.2,23.24,23.24,0,0,1,9.39,9.1l-7.59,7.5a23.14,23.14,0,0,0-6.8-7.3,16.62,16.62,0,0,0-9.61-2.8,16.08,16.08,0,0,0-9.25,2.55,8.75,8.75,0,0,0,.21,14.5,34.74,34.74,0,0,0,10.45,3.75,49.07,49.07,0,0,1,11.2,3.7,25.31,25.31,0,0,1,8.64,6.45,14.24,14.24,0,0,1,3.36,9.55q0,10-6.81,15.9t-18.69,5.9a33.61,33.61,0,0,1-14.75-3.2,30.22,30.22,0,0,1-11.65-10.4Z" transform="translate(-1.06 2.06)"/><path class="cls-2" d="M376,499.2l22.9,37.3,23.3-37.3h10v70H421.4V540.5q0-6.3.25-12t.85-11.25l-20.6,31.8h-6.6l-20.1-31.7c.4,3.73.67,7.47.8,11.2s.2,7.7.2,11.9v28.7H365.4v-70Z" transform="translate(-1.06 2.06)"/><path class="cls-2" d="M451.8,569.2v-70h44.1v10.4H462.6v18.5h27.8v10.4H462.6v20.3h33.3v10.4Z" transform="translate(-1.06 2.06)"/><path class="cls-2" d="M526.5,569.2V509.6H506.9V499.2h50.6v10.4H537.3v59.6Z" transform="translate(-1.06 2.06)"/><path class="cls-2" d="M601.6,569.2H568.2v-10h11.3v-50H568.2v-10h33.4v10H590.3v50h11.3Z" transform="translate(-1.06 2.06)"/><path class="cls-2" d="M618.6,569.2v-70h44.1v10.4H629.4v18.5h27.8v10.4H629.4v20.3h33.3v10.4Z" transform="translate(-1.06 2.06)"/><path class="cls-2" d="M731.9,521.5a20.1,20.1,0,0,1-3.75,11.7,22.57,22.57,0,0,1-9.75,8l16.3,28.1-13.1-.1-14.8-26.3h-16v26.3H680v-70h29.8a22.05,22.05,0,0,1,10.55,2.7,22.33,22.33,0,0,1,8.3,7.7A21.32,21.32,0,0,1,731.9,521.5ZM708,509.6H690.8v22.9h20a8.89,8.89,0,0,0,7.45-3.4,12.18,12.18,0,0,0,2.65-7.7,10.64,10.64,0,0,0-3.8-8.65A13.78,13.78,0,0,0,708,509.6Z" transform="translate(-1.06 2.06)"/><path class="cls-2" d="M752.1,548.1a38.05,38.05,0,0,0,8.55,9.15q4.46,3.25,11.55,3.25a19.37,19.37,0,0,0,6.5-1.1,12.74,12.74,0,0,0,5.1-3.2,7,7,0,0,0,2-5,8.86,8.86,0,0,0-4.25-7.8q-4.24-2.8-11.95-4.3-9.79-2-15.6-7t-5.8-14.35a16.69,16.69,0,0,1,3.35-10.4,21.84,21.84,0,0,1,8.85-6.8,29.43,29.43,0,0,1,11.9-2.4,30,30,0,0,1,14.3,3.2,23.32,23.32,0,0,1,9.4,9.1l-7.6,7.5a23.14,23.14,0,0,0-6.8-7.3,16.57,16.57,0,0,0-9.6-2.8,16.06,16.06,0,0,0-9.25,2.55A8.75,8.75,0,0,0,763,525a34.84,34.84,0,0,0,10.45,3.75,48.91,48.91,0,0,1,11.2,3.7,25.36,25.36,0,0,1,8.65,6.45,14.29,14.29,0,0,1,3.35,9.55q0,10-6.8,15.9t-18.7,5.9a33.61,33.61,0,0,1-14.75-3.2,30.29,30.29,0,0,1-11.65-10.4Z" transform="translate(-1.06 2.06)"/><path class="cls-2" d="M867.3,499.2A34.67,34.67,0,0,1,881.55,502a28.33,28.33,0,0,1,10.25,7.6,33.45,33.45,0,0,1,6.2,11.2,42.56,42.56,0,0,1,2.1,13.45,41,41,0,0,1-3.7,17.55,29.93,29.93,0,0,1-11,12.7q-7.3,4.75-18.1,4.75H839.9v-70Zm-.5,59.6q7.91,0,12.8-3.35a19.59,19.59,0,0,0,7.2-9,33.77,33.77,0,0,0,0-24.5,19.93,19.93,0,0,0-7.2-9q-4.9-3.4-12.8-3.4H850.7v49.2Z" transform="translate(-1.06 2.06)"/><path class="cls-2" d="M914.7,569.2v-70h44.1v10.4H925.5v18.5h27.8v10.4H925.5v20.3h33.3v10.4Z" transform="translate(-1.06 2.06)"/><path class="cls-2" d="M1047.7,558.8v10.4h-43.6v-70h10.8v59.6Z" transform="translate(-1.06 2.06)"/><path class="cls-2" d="M1064.3,507.7a13.19,13.19,0,0,1-2,7.1,20.24,20.24,0,0,1-5.35,5.7,23.18,23.18,0,0,1-6.9,3.5l-3.8-4.6a24.76,24.76,0,0,0,6.4-4.1c1.67-1.53,2.5-2.87,2.5-4a3.21,3.21,0,0,0-1-2.4,28.8,28.8,0,0,0-2.35-2,16.4,16.4,0,0,1-2.35-2.2,4.39,4.39,0,0,1-1-3,4.7,4.7,0,0,1,1.75-3.9,6.77,6.77,0,0,1,4.35-1.4,9.78,9.78,0,0,1,6.8,2.9Q1064.3,502.2,1064.3,507.7Z" transform="translate(-1.06 2.06)"/><path class="cls-2" d="M1118.3,569.2l-6.6-17.4h-29.3l-6.6,17.4h-11l27.1-70h11l26.9,70Zm-26.6-41.8-5.3,14h21.4l-5.5-14.4c-.87-2.33-1.73-4.85-2.6-7.55s-1.73-5.42-2.6-8.15q-1.39,4.2-2.75,8.4T1091.7,527.4Z" transform="translate(-1.06 2.06)"/><path class="cls-2" d="M1195.5,499.1v43.2a27.57,27.57,0,0,1-3.65,14.15,26.15,26.15,0,0,1-10,9.8,31.49,31.49,0,0,1-29,0,26,26,0,0,1-10-9.8,27.57,27.57,0,0,1-3.65-14.15V499.1h10.8v42.3a17.8,17.8,0,0,0,8.9,15.7,16.83,16.83,0,0,0,8.5,2.3,17.92,17.92,0,0,0,8.9-2.3,17.49,17.49,0,0,0,6.55-6.4,17.79,17.79,0,0,0,2.45-9.3V499.1Z" transform="translate(-1.06 2.06)"/><path class="cls-2" d="M1241.5,499.2a34.67,34.67,0,0,1,14.25,2.75,28.33,28.33,0,0,1,10.25,7.6,33.45,33.45,0,0,1,6.2,11.2,42.56,42.56,0,0,1,2.1,13.45,41,41,0,0,1-3.7,17.55,29.93,29.93,0,0,1-11,12.7q-7.3,4.75-18.1,4.75h-27.4v-70Zm-.5,59.6q7.9,0,12.8-3.35a19.59,19.59,0,0,0,7.2-9,33.77,33.77,0,0,0,0-24.5,19.93,19.93,0,0,0-7.2-9q-4.9-3.4-12.8-3.4h-16.1v49.2Z" transform="translate(-1.06 2.06)"/><path class="cls-2" d="M1318.2,569.2h-33.4v-10h11.3v-50h-11.3v-10h33.4v10h-11.3v50h11.3Z" transform="translate(-1.06 2.06)"/><path class="cls-2" d="M1397.3,534.2a39.5,39.5,0,0,1-2.5,14.15,34.16,34.16,0,0,1-7.15,11.45,33.4,33.4,0,0,1-10.9,7.65A33.83,33.83,0,0,1,1363,570.2a34.18,34.18,0,0,1-13.8-2.75,32.58,32.58,0,0,1-10.9-7.65,34.36,34.36,0,0,1-7.1-11.45,41.29,41.29,0,0,1,0-28.3,34.36,34.36,0,0,1,7.1-11.45,32.58,32.58,0,0,1,10.9-7.65,34.18,34.18,0,0,1,13.8-2.75,33.83,33.83,0,0,1,13.75,2.75,33.4,33.4,0,0,1,10.9,7.65,34.16,34.16,0,0,1,7.15,11.45A39.5,39.5,0,0,1,1397.3,534.2Zm-11,0a27.77,27.77,0,0,0-3-13.05,23.41,23.41,0,0,0-8.25-9.1,23.53,23.53,0,0,0-24.2,0,23,23,0,0,0-8.2,9.1,30.34,30.34,0,0,0,0,26.1,23,23,0,0,0,8.2,9.1,23.53,23.53,0,0,0,24.2,0,23.28,23.28,0,0,0,8.25-9.15A27.88,27.88,0,0,0,1386.3,534.2Z" transform="translate(-1.06 2.06)"/><path class="cls-2" d="M1468.2,499.2l-28.2,70h-10.5l-28-70h12.3l16.7,42.5q1.29,3.4,2.55,6.7t2.35,6.7q1.1-3.4,2.3-6.75t2.4-6.65l15.5-42.5Z" transform="translate(-1.06 2.06)"/><path class="cls-2" d="M1511.2,569.2h-33.4v-10h11.3v-50h-11.3v-10h33.4v10h-11.3v50h11.3Z" transform="translate(-1.06 2.06)"/><path class="cls-2" d="M1530.8,548.1a38.05,38.05,0,0,0,8.55,9.15q4.44,3.25,11.55,3.25a19.42,19.42,0,0,0,6.5-1.1,12.88,12.88,0,0,0,5.1-3.2,7,7,0,0,0,2-5,8.86,8.86,0,0,0-4.25-7.8q-4.26-2.8-12-4.3-9.81-2-15.6-7t-5.8-14.35a16.63,16.63,0,0,1,3.35-10.4,21.84,21.84,0,0,1,8.85-6.8,29.39,29.39,0,0,1,11.9-2.4,30,30,0,0,1,14.3,3.2,23.32,23.32,0,0,1,9.4,9.1l-7.6,7.5a23.14,23.14,0,0,0-6.8-7.3,16.61,16.61,0,0,0-9.6-2.8,16.06,16.06,0,0,0-9.25,2.55,8.07,8.07,0,0,0-3.75,7.05c0,3.4,1.31,5.88,4,7.45a34.74,34.74,0,0,0,10.45,3.75,49.07,49.07,0,0,1,11.2,3.7,25.45,25.45,0,0,1,8.65,6.45,14.29,14.29,0,0,1,3.35,9.55q0,10-6.8,15.9t-18.7,5.9a33.61,33.61,0,0,1-14.75-3.2,30.22,30.22,0,0,1-11.65-10.4Z" transform="translate(-1.06 2.06)"/><path class="cls-2" d="M1646,499.1v43.2a27.57,27.57,0,0,1-3.65,14.15,26.22,26.22,0,0,1-10,9.8,31.49,31.49,0,0,1-29,0,26,26,0,0,1-10-9.8,27.47,27.47,0,0,1-3.65-14.15V499.1h10.8v42.3a17.8,17.8,0,0,0,8.9,15.7,16.8,16.8,0,0,0,8.5,2.3,17.94,17.94,0,0,0,8.9-2.3,17.56,17.56,0,0,0,6.55-6.4,17.79,17.79,0,0,0,2.45-9.3V499.1Z" transform="translate(-1.06 2.06)"/><path class="cls-2" d="M1664.6,569.2v-70h44.1v10.4h-33.3v18.5h27.8v10.4h-27.8v20.3h33.3v10.4Z" transform="translate(-1.06 2.06)"/><path class="cls-2" d="M1769.6,558.8v10.4H1726v-70h10.79v59.6Z" transform="translate(-1.06 2.06)"/></svg>