<svg id="Calque_1" data-name="Calque 1" xmlns="http://www.w3.org/2000/svg" viewBox="0 0 1921 1081"><defs><style>.cls-1{fill:#eeb81d;stroke:#1d1d1b;stroke-miterlimit:10;}.cls-2{fill:#fff;}</style></defs><title>pref</title><rect class="cls-1" x="0.5" y="0.5" width="1920" height="1080"/><path class="cls-2" d="M412.15,500.6a23.6,23.6,0,0,1-5.85,4.6,37.83,37.83,0,0,1-18.95,5,32.75,32.75,0,0,1-17-4.45,32.31,32.31,0,0,1-12-12.55,38.92,38.92,0,0,1-4.45-19,36.66,36.66,0,0,1,2.7-14.2,34.68,34.68,0,0,1,18.5-18.75,33,33,0,0,1,13.1-2.65,31.64,31.64,0,0,1,10.65,1.75,33.68,33.68,0,0,1,8.7,4.5,24.18,24.18,0,0,1,5.85,5.85l-7.2,7.5a35.44,35.44,0,0,0-8.2-6.3,19.79,19.79,0,0,0-9.8-2.5,22.86,22.86,0,0,0-11.35,3,23.18,23.18,0,0,0-8.65,8.55A25.47,25.47,0,0,0,365,474.2q0,8.4,3.35,14a21.26,21.26,0,0,0,8.9,8.35,26.61,26.61,0,0,0,11.95,2.75,22.09,22.09,0,0,0,10.4-2.35,27.78,27.78,0,0,0,7.2-5.15Z" transform="translate(-1.06 2.06)"/><path class="cls-2" d="M426.85,509.2v-70H471v10.4h-33.3v18.5h27.8v10.4h-27.8v20.3H471v10.4Z" transform="translate(-1.06 2.06)"/><path class="cls-2" d="M576.35,514l-8.6,6.2-9.4-12.3a35.5,35.5,0,0,1-12.8,2.3,34.18,34.18,0,0,1-13.8-2.75,32.68,32.68,0,0,1-10.9-7.65,34.68,34.68,0,0,1-7.1-11.45,41.29,41.29,0,0,1,0-28.3,34.68,34.68,0,0,1,7.1-11.45,32.68,32.68,0,0,1,10.9-7.65,34.18,34.18,0,0,1,13.8-2.75A33.8,33.8,0,0,1,559.3,441a33.3,33.3,0,0,1,10.9,7.65,34,34,0,0,1,7.15,11.45,39.28,39.28,0,0,1,2.5,14.15,38.4,38.4,0,0,1-3.3,16,34.07,34.07,0,0,1-9.1,12.2Zm-7.5-39.8a27.77,27.77,0,0,0-3-13.05,23.41,23.41,0,0,0-8.25-9.1,23.53,23.53,0,0,0-24.2,0,23.07,23.07,0,0,0-8.2,9.1,30.34,30.34,0,0,0,0,26.1,23.07,23.07,0,0,0,8.2,9.1,22.12,22.12,0,0,0,12.15,3.35,22.56,22.56,0,0,0,6-.8l-10.3-13.4,4.45-2.95,4.45-2.95L561,493.8a24.48,24.48,0,0,0,5.8-8.55A28.51,28.51,0,0,0,568.85,474.2Z" transform="translate(-1.06 2.06)"/><path class="cls-2" d="M649.85,439.1v43.2a27.57,27.57,0,0,1-3.65,14.15,26.08,26.08,0,0,1-10,9.8,31.49,31.49,0,0,1-29.05,0,26.14,26.14,0,0,1-10-9.8,27.57,27.57,0,0,1-3.65-14.15V439.1h10.8v42.3a17.8,17.8,0,0,0,8.9,15.7,16.83,16.83,0,0,0,8.5,2.3,17.92,17.92,0,0,0,8.9-2.3,17.41,17.41,0,0,0,6.55-6.4,17.7,17.7,0,0,0,2.45-9.3V439.1Z" transform="translate(-1.06 2.06)"/><path class="cls-2" d="M668.45,509.2v-70h44.1v10.4h-33.3v18.5h27.8v10.4h-27.8v20.3h33.3v10.4Z" transform="translate(-1.06 2.06)"/><path class="cls-2" d="M817.15,439.2l-28.2,70h-10.5l-28-70h12.3l16.7,42.5q1.31,3.41,2.55,6.7c.83,2.2,1.62,4.43,2.35,6.7q1.1-3.41,2.3-6.75t2.4-6.65l15.5-42.5Z" transform="translate(-1.06 2.06)"/><path class="cls-2" d="M890,474.2a39.28,39.28,0,0,1-2.5,14.15,34.16,34.16,0,0,1-7.15,11.45,33.3,33.3,0,0,1-10.9,7.65,33.83,33.83,0,0,1-13.75,2.75,34.18,34.18,0,0,1-13.8-2.75A32.68,32.68,0,0,1,831,499.8a34.52,34.52,0,0,1-7.1-11.45,41.29,41.29,0,0,1,0-28.3A34.52,34.52,0,0,1,831,448.6a32.68,32.68,0,0,1,10.9-7.65,34.18,34.18,0,0,1,13.8-2.75A33.83,33.83,0,0,1,869.4,441a33.3,33.3,0,0,1,10.9,7.65,34.16,34.16,0,0,1,7.15,11.45A39.28,39.28,0,0,1,890,474.2Zm-11,0a27.77,27.77,0,0,0-3-13.05,23.41,23.41,0,0,0-8.25-9.1,23.53,23.53,0,0,0-24.2,0,23.07,23.07,0,0,0-8.2,9.1,30.34,30.34,0,0,0,0,26.1,23.07,23.07,0,0,0,8.2,9.1,23.53,23.53,0,0,0,24.2,0A23.28,23.28,0,0,0,876,487.2,27.88,27.88,0,0,0,879,474.2Z" transform="translate(-1.06 2.06)"/><path class="cls-2" d="M960,439.1v43.2a27.57,27.57,0,0,1-3.65,14.15,26.15,26.15,0,0,1-10,9.8,31.49,31.49,0,0,1-29,0,26,26,0,0,1-10-9.8,27.57,27.57,0,0,1-3.65-14.15V439.1h10.8v42.3a17.8,17.8,0,0,0,8.9,15.7,16.83,16.83,0,0,0,8.5,2.3,17.92,17.92,0,0,0,8.9-2.3,17.49,17.49,0,0,0,6.55-6.4,17.79,17.79,0,0,0,2.45-9.3V439.1Z" transform="translate(-1.06 2.06)"/><path class="cls-2" d="M980.15,488.1a38.05,38.05,0,0,0,8.55,9.15q4.45,3.25,11.55,3.25a19.37,19.37,0,0,0,6.5-1.1,12.74,12.74,0,0,0,5.1-3.2,7,7,0,0,0,2-5,8.86,8.86,0,0,0-4.25-7.8q-4.25-2.81-12-4.3-9.79-2-15.6-7t-5.8-14.35a16.69,16.69,0,0,1,3.35-10.4,21.84,21.84,0,0,1,8.85-6.8,29.43,29.43,0,0,1,11.9-2.4,30,30,0,0,1,14.3,3.2,23.32,23.32,0,0,1,9.4,9.1l-7.6,7.5a23.14,23.14,0,0,0-6.8-7.3,16.57,16.57,0,0,0-9.6-2.8,16.06,16.06,0,0,0-9.25,2.55A8.75,8.75,0,0,0,991,465a34.84,34.84,0,0,0,10.45,3.75,48.91,48.91,0,0,1,11.2,3.7,25.36,25.36,0,0,1,8.65,6.45,14.29,14.29,0,0,1,3.35,9.55q0,10-6.8,15.9t-18.7,5.9A33.61,33.61,0,0,1,984.4,507a30.29,30.29,0,0,1-11.65-10.4Z" transform="translate(-1.06 2.06)"/><path class="cls-2" d="M1096.45,439.2a19.49,19.49,0,0,1,10.3,2.85,21.37,21.37,0,0,1,10.3,18.65,21.82,21.82,0,0,1-2.8,10.95,21.5,21.5,0,0,1-7.5,7.85,19.27,19.27,0,0,1-10.3,2.9h-17.7v26.8H1068v-70Zm-.2,32.8a8.34,8.34,0,0,0,4.9-1.55,11.44,11.44,0,0,0,3.55-4.1,11.88,11.88,0,0,0,1.35-5.65,11.35,11.35,0,0,0-2.9-7.9,9,9,0,0,0-6.9-3.2h-17.5V472Z" transform="translate(-1.06 2.06)"/><path class="cls-2" d="M1183.25,461.5a20.1,20.1,0,0,1-3.75,11.7,22.57,22.57,0,0,1-9.75,8l16.3,28.1-13.1-.1-14.8-26.3h-16v26.3h-10.8v-70h29.8a22.11,22.11,0,0,1,10.55,2.7,22.49,22.49,0,0,1,8.3,7.7A21.4,21.4,0,0,1,1183.25,461.5Zm-23.9-11.9h-17.2v22.9h20a8.9,8.9,0,0,0,7.45-3.4,12.24,12.24,0,0,0,2.65-7.7,10.64,10.64,0,0,0-3.8-8.65A13.82,13.82,0,0,0,1159.35,449.6Z" transform="translate(-1.06 2.06)"/><path class="cls-2" d="M1200.85,509.2v-70H1245v10.4h-33.3v18.5h27.8v10.4h-27.8v20.3H1245v10.4Z" transform="translate(-1.06 2.06)"/><path class="cls-2" d="M1262.25,509.2v-70h45.4v10.4h-34.6V469h30.1v10.4h-30.1v29.8Z" transform="translate(-1.06 2.06)"/><path class="cls-2" d="M1322.45,509.2v-70h44.1v10.4h-33.3v18.5h27.8v10.4h-27.8v20.3h33.3v10.4Z" transform="translate(-1.06 2.06)"/><path class="cls-2" d="M1435.75,461.5a20.1,20.1,0,0,1-3.75,11.7,22.57,22.57,0,0,1-9.75,8l16.3,28.1-13.1-.1-14.8-26.3h-16v26.3h-10.8v-70h29.8a22.11,22.11,0,0,1,10.55,2.7,22.49,22.49,0,0,1,8.3,7.7A21.4,21.4,0,0,1,1435.75,461.5Zm-23.9-11.9h-17.2v22.9h20a8.9,8.9,0,0,0,7.45-3.4,12.24,12.24,0,0,0,2.65-7.7,10.64,10.64,0,0,0-3.8-8.65A13.82,13.82,0,0,0,1411.85,449.6Z" transform="translate(-1.06 2.06)"/><path class="cls-2" d="M1453.35,509.2v-70h44.1v10.4h-33.31v18.5H1492v10.4h-27.81v20.3h33.31v10.4Z" transform="translate(-1.06 2.06)"/><path class="cls-2" d="M1564.24,439.2V447l-38.39,51.8h39.5v10.4H1511v-7.9l38.59-51.7h-36V439.2Z" transform="translate(-1.06 2.06)"/><path class="cls-2" d="M468.8,559.2A34.67,34.67,0,0,1,483.05,562a28.33,28.33,0,0,1,10.25,7.6,33.28,33.28,0,0,1,6.2,11.2,42.56,42.56,0,0,1,2.1,13.45,41,41,0,0,1-3.7,17.55,29.86,29.86,0,0,1-11,12.7q-7.29,4.75-18.1,4.75H441.4v-70Zm-.5,59.6q7.9,0,12.8-3.35a19.59,19.59,0,0,0,7.2-9,33.77,33.77,0,0,0,0-24.5,19.93,19.93,0,0,0-7.2-9q-4.89-3.4-12.8-3.4H452.2v49.2Z" transform="translate(-1.06 2.06)"/><path class="cls-2" d="M560.4,629.2l-6.6-17.4H524.5l-6.6,17.4h-11l27.1-70h11l26.9,70Zm-26.6-41.8-5.3,14h21.4L544.4,587q-1.29-3.5-2.6-7.55l-2.6-8.15q-1.4,4.2-2.75,8.4T533.8,587.4Z" transform="translate(-1.06 2.06)"/><path class="cls-2" d="M633.1,559.2h10.8v70H634l-40.7-53.4q.6,6.11,1.15,12.15T595,600.1v29.1H584.2v-70h9.7l40.7,54.5q-.9-7.31-1.2-15.75t-.3-15.75Z" transform="translate(-1.06 2.06)"/><path class="cls-2" d="M666.1,608.1a38.45,38.45,0,0,0,8.55,9.15q4.46,3.25,11.55,3.25a19.33,19.33,0,0,0,6.5-1.1,12.74,12.74,0,0,0,5.1-3.2,7,7,0,0,0,2-5,8.84,8.84,0,0,0-4.25-7.8q-4.24-2.8-11.95-4.3-9.79-2-15.6-7t-5.8-14.35a16.69,16.69,0,0,1,3.35-10.4,22,22,0,0,1,8.85-6.8,29.46,29.46,0,0,1,11.9-2.4,30,30,0,0,1,14.3,3.2,23.26,23.26,0,0,1,9.4,9.1l-7.6,7.5a23,23,0,0,0-6.8-7.3,16.57,16.57,0,0,0-9.6-2.8,16.08,16.08,0,0,0-9.25,2.55A8.75,8.75,0,0,0,677,585a34.94,34.94,0,0,0,10.45,3.75,48.75,48.75,0,0,1,11.2,3.7,25.26,25.26,0,0,1,8.65,6.45,14.24,14.24,0,0,1,3.35,9.55q0,10-6.8,15.9t-18.7,5.9a33.64,33.64,0,0,1-14.75-3.2,30.36,30.36,0,0,1-11.65-10.4Z" transform="translate(-1.06 2.06)"/><path class="cls-2" d="M813.2,559.2l-28.2,70H774.5l-28-70h12.3l16.7,42.5q1.31,3.4,2.55,6.7c.83,2.2,1.62,4.43,2.35,6.7q1.1-3.4,2.3-6.75t2.4-6.65l15.5-42.5Z" transform="translate(-1.06 2.06)"/><path class="cls-2" d="M886,594.2a39.28,39.28,0,0,1-2.5,14.15,34.16,34.16,0,0,1-7.15,11.45,33.3,33.3,0,0,1-10.9,7.65,33.83,33.83,0,0,1-13.75,2.75,34.18,34.18,0,0,1-13.8-2.75A32.68,32.68,0,0,1,827,619.8a34.52,34.52,0,0,1-7.1-11.45,41.29,41.29,0,0,1,0-28.3A34.52,34.52,0,0,1,827,568.6,32.68,32.68,0,0,1,837.9,561a34.18,34.18,0,0,1,13.8-2.75A33.83,33.83,0,0,1,865.45,561a33.3,33.3,0,0,1,10.9,7.65,34.16,34.16,0,0,1,7.15,11.45A39.28,39.28,0,0,1,886,594.2Zm-11,0a27.77,27.77,0,0,0-3-13.05,23.41,23.41,0,0,0-8.25-9.1,23.53,23.53,0,0,0-24.2,0,23.07,23.07,0,0,0-8.2,9.1,30.34,30.34,0,0,0,0,26.1,23.07,23.07,0,0,0,8.2,9.1,23.53,23.53,0,0,0,24.2,0A23.28,23.28,0,0,0,872,607.2,27.88,27.88,0,0,0,875,594.2Z" transform="translate(-1.06 2.06)"/><path class="cls-2" d="M910.9,629.2V569.6H891.3V559.2h50.6v10.4H921.7v59.6Z" transform="translate(-1.06 2.06)"/><path class="cls-2" d="M1007.1,581.5a20.1,20.1,0,0,1-3.75,11.7,22.57,22.57,0,0,1-9.75,8l16.3,28.1-13.1-.1L982,602.9H966v26.3H955.2v-70H985a22.08,22.08,0,0,1,10.55,2.7,22.41,22.41,0,0,1,8.3,7.7A21.32,21.32,0,0,1,1007.1,581.5Zm-23.9-11.9H966v22.9h20a8.9,8.9,0,0,0,7.45-3.4,12.24,12.24,0,0,0,2.65-7.7,10.64,10.64,0,0,0-3.8-8.65A13.8,13.8,0,0,0,983.2,569.6Z" transform="translate(-1.06 2.06)"/><path class="cls-2" d="M1024.7,629.2v-70h44.1v10.4h-33.3v18.5h27.8v10.4h-27.8v20.3h33.3v10.4Z" transform="translate(-1.06 2.06)"/><path class="cls-2" d="M1124.7,559.2l22.9,37.3,23.3-37.3h10v70h-10.8V600.5q0-6.3.25-12t.85-11.25l-20.6,31.8H1144l-20.1-31.7c.4,3.73.66,7.47.8,11.2s.2,7.7.2,11.9v28.7h-10.8v-70Z" transform="translate(-1.06 2.06)"/><path class="cls-2" d="M1200.5,629.2v-70h44.1v10.4h-33.3v18.5h27.8v10.4h-27.8v20.3h33.3v10.4Z" transform="translate(-1.06 2.06)"/><path class="cls-2" d="M1275.2,629.2V569.6h-19.6V559.2h50.6v10.4H1286v59.6Z" transform="translate(-1.06 2.06)"/><path class="cls-2" d="M1350.3,629.2h-33.4v-10h11.3v-50h-11.3v-10h33.4v10H1339v50h11.3Z" transform="translate(-1.06 2.06)"/><path class="cls-2" d="M1367.3,629.2v-70h44.1v10.4h-33.3v18.5h27.8v10.4h-27.8v20.3h33.3v10.4Z" transform="translate(-1.06 2.06)"/><path class="cls-2" d="M1480.6,581.5a20.1,20.1,0,0,1-3.75,11.7,22.57,22.57,0,0,1-9.75,8l16.3,28.1-13.1-.1-14.8-26.3h-16v26.3h-10.8v-70h29.8a22.11,22.11,0,0,1,10.55,2.7,22.49,22.49,0,0,1,8.3,7.7A21.4,21.4,0,0,1,1480.6,581.5Zm-23.9-11.9h-17.2v22.9h20a8.9,8.9,0,0,0,7.45-3.4,12.24,12.24,0,0,0,2.65-7.7,10.64,10.64,0,0,0-3.8-8.65A13.82,13.82,0,0,0,1456.7,569.6Z" transform="translate(-1.06 2.06)"/></svg>