<?xml version="1.0" standalone="no"?>
<!DOCTYPE svg PUBLIC "-//W3C//DTD SVG 20010904//EN"
 "http://www.w3.org/TR/2001/REC-SVG-20010904/DTD/svg10.dtd">
<svg version="1.0" xmlns="http://www.w3.org/2000/svg"
 width="125.000000pt" height="120.000000pt" viewBox="0 0 125.000000 120.000000"
 preserveAspectRatio="xMidYMid meet">


<g transform="translate(0.000000,120.000000) scale(0.100000,-0.100000)"
fill="rgb(212,73,154)" stroke="none">
<path d="M947 1179 c-8 -13 -65 -111 -125 -216 l-111 -193 249 0 c138 0 250 4
250 8 0 10 -225 401 -239 415 -6 6 -15 0 -24 -14z m92 -217 c39 -68 71 -125
71 -127 0 -3 -65 -5 -145 -5 -80 0 -145 2 -145 5 0 6 144 255 146 252 1 -1 34
-57 73 -125z"/>
<path d="M155 1168 c-32 -17 -76 -61 -91 -90 -17 -32 -19 -131 -3 -161 17 -32
60 -77 91 -93 15 -8 52 -14 83 -14 31 0 68 6 83 14 31 16 74 61 91 93 16 30
14 129 -3 161 -16 31 -61 74 -93 91 -28 14 -132 14 -158 -1z m153 -66 c31 -20
55 -69 55 -112 0 -124 -181 -170 -238 -60 -40 78 -10 157 70 185 43 15 76 11
113 -13z"/>
<path d="M490 808 c1 -42 48 -207 66 -232 89 -119 424 -507 442 -512 29 -8 54
5 115 61 37 34 48 50 45 69 -2 15 -91 130 -224 288 l-221 263 -97 43 c-111 48
-126 51 -126 20z m407 -376 l203 -241 -39 -32 c-22 -17 -42 -32 -44 -33 -3 0
-98 109 -211 244 l-206 245 37 33 c20 18 41 31 47 29 6 -2 102 -112 213 -245z"/>
<path d="M0 195 l0 -195 195 0 195 0 0 195 0 195 -195 0 -195 0 0 -195z m340
0 l0 -145 -145 0 -145 0 0 145 0 145 145 0 145 0 0 -145z"/>
</g>
</svg>
