<?xml version="1.0" standalone="no"?>
<!DOCTYPE svg PUBLIC "-//W3C//DTD SVG 20010904//EN"
 "http://www.w3.org/TR/2001/REC-SVG-20010904/DTD/svg10.dtd">
<svg version="1.0" xmlns="http://www.w3.org/2000/svg"
 width="508.000000pt" height="533.000000pt" viewBox="0 0 508.000000 533.000000"
 preserveAspectRatio="xMidYMid meet">
<metadata>
Created by potrace 1.16, written by Peter Selinger 2001-2019
</metadata>
<g transform="translate(0.000000,533.000000) scale(0.100000,-0.100000)"
fill="#000000" stroke="none">
<path d="M2285 5315 c-392 -53 -750 -188 -1076 -407 -58 -38 -87 -64 -82 -71
4 -7 116 -158 248 -337 132 -179 250 -339 262 -356 l22 -31 -72 -46 c-282
-179 -527 -482 -647 -799 -151 -401 -148 -830 8 -1228 23 -57 40 -105 39 -107
-2 -1 -187 -70 -412 -154 -226 -83 -414 -155 -418 -159 -11 -10 50 -157 125
-300 121 -234 271 -433 469 -625 363 -352 802 -575 1310 -665 155 -28 511 -39
681 -21 620 65 1209 373 1612 842 82 96 210 268 203 275 -1 1 -168 111 -372
244 -203 133 -372 244 -374 246 -2 2 10 24 27 48 112 156 188 301 242 463 68
207 97 403 87 606 l-6 117 461 0 461 0 -6 148 c-22 576 -273 1149 -692 1581
-372 383 -831 626 -1366 722 -158 28 -573 36 -734 14z m630 -222 c838 -118
1541 -696 1824 -1497 51 -144 84 -289 115 -503 l3 -23 -367 0 -367 0 -36 113
c-181 561 -656 990 -1237 1115 -285 62 -615 43 -890 -51 l-97 -33 -209 282
c-114 155 -210 286 -211 291 -5 13 189 113 323 166 224 90 433 137 714 161 80
7 322 -5 435 -21z m-197 -1078 c502 -82 931 -454 1086 -944 81 -256 81 -556 0
-812 -112 -355 -385 -670 -717 -828 -206 -98 -399 -136 -637 -128 -227 8 -366
43 -565 142 -138 69 -253 155 -371 276 -179 186 -291 393 -352 652 -23 99 -26
133 -26 292 0 159 3 193 26 292 61 259 173 466 352 652 217 224 463 354 766
406 105 18 326 18 438 0z m-1568 -2338 c200 -275 491 -488 817 -597 550 -183
1179 -63 1611 309 61 52 75 60 91 51 51 -27 566 -369 569 -378 4 -14 -240
-264 -332 -338 -336 -272 -732 -440 -1166 -495 -140 -18 -422 -15 -565 6 -654
95 -1224 452 -1578 989 -74 110 -162 265 -156 270 5 3 652 244 659 245 3 0 25
-27 50 -62z"/>
<path d="M2391 3659 c-113 -22 -243 -110 -309 -208 -155 -232 -96 -553 131
-704 l37 -25 -34 -22 c-56 -34 -177 -171 -228 -257 -117 -198 -198 -498 -198
-735 l0 -88 712 0 711 0 -6 118 c-20 351 -138 674 -318 867 -32 34 -77 74 -99
90 l-41 28 28 18 c54 36 131 121 163 181 44 81 60 147 60 244 0 138 -45 249
-142 350 -119 125 -292 178 -467 143z m239 -245 c105 -57 156 -152 148 -273
-8 -108 -62 -185 -163 -233 -139 -65 -299 -7 -372 136 -38 72 -38 170 0 242
31 61 102 127 160 148 65 24 162 15 227 -20z m-25 -867 c161 -81 295 -308 355
-603 11 -53 20 -98 20 -100 0 -2 -217 -4 -481 -4 l-481 0 7 48 c13 85 55 236
90 315 50 117 93 184 165 257 113 116 215 143 325 87z"/>
</g>
</svg>
