<?xml version="1.0" standalone="no"?>
<!DOCTYPE svg PUBLIC "-//W3C//DTD SVG 20010904//EN"
 "http://www.w3.org/TR/2001/REC-SVG-20010904/DTD/svg10.dtd">
<svg version="1.0" xmlns="http://www.w3.org/2000/svg"
 width="105.000000pt" height="105.000000pt" viewBox="0 0 105.000000 105.000000"
 preserveAspectRatio="xMidYMid meet">
<metadata>
Created by potrace 1.16, written by Peter Selinger 2001-2019
</metadata>
<g transform="translate(0.000000,105.000000) scale(0.100000,-0.100000)"
fill="#000000" stroke="none">
<path d="M369 1031 c-89 -29 -154 -69 -222 -140 -105 -108 -147 -214 -147
-366 0 -156 48 -271 159 -378 108 -105 213 -147 366 -147 156 0 271 48 378
159 105 108 147 213 147 366 0 153 -42 258 -147 366 -68 71 -143 117 -232 143
-75 22 -229 20 -302 -3z m276 -73 c69 -18 137 -58 197 -119 177 -176 176 -452
-1 -630 -178 -178 -454 -178 -632 0 -178 178 -178 454 0 632 118 118 272 159
436 117z"/>
<path d="M500 805 c0 -28 -4 -35 -20 -35 -11 0 -36 -15 -56 -33 -28 -26 -37
-42 -41 -77 -7 -72 19 -107 113 -155 72 -36 79 -43 82 -72 3 -27 -1 -35 -22
-44 -39 -18 -73 -4 -86 36 -11 33 -14 35 -55 35 -24 0 -46 -4 -49 -8 -11 -18
17 -87 45 -113 16 -15 43 -30 59 -34 25 -5 30 -12 30 -36 0 -26 4 -29 30 -29
26 0 30 3 30 29 0 25 6 31 34 41 53 17 79 52 84 113 4 49 1 57 -27 89 -17 20
-55 46 -83 58 -66 28 -88 47 -88 75 0 30 23 47 57 43 22 -2 30 -10 38 -35 9
-31 12 -33 57 -33 45 0 48 2 48 25 0 53 -59 125 -101 125 -15 0 -19 8 -19 35
0 32 -2 35 -30 35 -28 0 -30 -3 -30 -35z"/>
</g>
</svg>
