<svg width="122" height="128" viewBox="0 0 122 128" fill="none" xmlns="http://www.w3.org/2000/svg">
<circle cx="60" cy="64" r="36.5" stroke="black" stroke-width="7"/>
<mask id="path-2-inside-1" fill="white">
<path d="M122 59.5C122 48.4833 118.941 37.6829 113.165 28.302C107.388 18.9211 99.121 11.3282 89.2835 6.3691C79.4461 1.41 68.425 -0.720533 57.448 0.21486C46.4711 1.15025 35.9694 5.11484 27.1129 11.6669L44.0643 34.5803C48.6783 31.1668 54.1494 29.1014 59.8681 28.6141C65.5868 28.1267 71.3285 29.2367 76.4535 31.8202C81.5785 34.4038 85.8857 38.3595 88.8951 43.2467C91.9044 48.1339 93.4979 53.7606 93.4979 59.5H122Z"/>
</mask>
<path d="M122 59.5C122 48.4833 118.941 37.6829 113.165 28.302C107.388 18.9211 99.121 11.3282 89.2835 6.3691C79.4461 1.41 68.425 -0.720533 57.448 0.21486C46.4711 1.15025 35.9694 5.11484 27.1129 11.6669L44.0643 34.5803C48.6783 31.1668 54.1494 29.1014 59.8681 28.6141C65.5868 28.1267 71.3285 29.2367 76.4535 31.8202C81.5785 34.4038 85.8857 38.3595 88.8951 43.2467C91.9044 48.1339 93.4979 53.7606 93.4979 59.5H122Z" stroke="black" stroke-width="10" mask="url(#path-2-inside-1)"/>
<mask id="path-3-inside-2" fill="white">
<path d="M3.7112 89.1848C7.54109 99.5143 14.1636 108.578 22.841 115.365C31.5183 122.153 41.9098 126.398 52.8576 127.628C63.8055 128.858 74.8798 127.024 84.8469 122.331C94.814 117.638 103.282 110.27 109.309 101.047L85.449 85.4564C82.3095 90.2609 77.8976 94.0995 72.7051 96.5445C67.5125 98.9895 61.743 99.9448 56.0395 99.3041C50.336 98.6634 44.9223 96.4518 40.4016 92.9156C35.881 89.3794 32.4308 84.6576 30.4356 79.2762L3.7112 89.1848Z"/>
</mask>
<path d="M3.7112 89.1848C7.54109 99.5143 14.1636 108.578 22.841 115.365C31.5183 122.153 41.9098 126.398 52.8576 127.628C63.8055 128.858 74.8798 127.024 84.8469 122.331C94.814 117.638 103.282 110.27 109.309 101.047L85.449 85.4564C82.3095 90.2609 77.8976 94.0995 72.7051 96.5445C67.5125 98.9895 61.743 99.9448 56.0395 99.3041C50.336 98.6634 44.9223 96.4518 40.4016 92.9156C35.881 89.3794 32.4308 84.6576 30.4356 79.2762L3.7112 89.1848Z" stroke="black" stroke-width="10" mask="url(#path-3-inside-2)"/>
<mask id="path-4-inside-3" fill="white">
<path d="M77 89C77 85.323 76.5603 81.682 75.706 78.2849C74.8516 74.8877 73.5994 71.801 72.0208 69.201C70.4422 66.601 68.5682 64.5385 66.5056 63.1314C64.4431 61.7242 62.2325 61 60 61C57.7675 61 55.5569 61.7242 53.4944 63.1314C51.4318 64.5385 49.5578 66.601 47.9792 69.201C46.4006 71.8011 45.1484 74.8877 44.294 78.2849C43.4397 81.682 43 85.323 43 89L60 89H77Z"/>
</mask>
<path d="M77 89C77 85.323 76.5603 81.682 75.706 78.2849C74.8516 74.8877 73.5994 71.801 72.0208 69.201C70.4422 66.601 68.5682 64.5385 66.5056 63.1314C64.4431 61.7242 62.2325 61 60 61C57.7675 61 55.5569 61.7242 53.4944 63.1314C51.4318 64.5385 49.5578 66.601 47.9792 69.201C46.4006 71.8011 45.1484 74.8877 44.294 78.2849C43.4397 81.682 43 85.323 43 89L60 89H77Z" stroke="black" stroke-width="10" mask="url(#path-4-inside-3)"/>
<circle cx="60" cy="52" r="9.5" stroke="black" stroke-width="5"/>
</svg>
