<svg width="105" height="105" viewBox="0 0 105 105" fill="none" xmlns="http://www.w3.org/2000/svg">
<circle cx="52.5" cy="52.5" r="49" stroke="black" stroke-width="7"/>
<path d="M58.6875 62.0312C58.6875 60.3229 58.2083 58.9688 57.25 57.9688C56.3125 56.9479 54.7083 56.0104 52.4375 55.1562C50.1667 54.3021 48.2083 53.4583 46.5625 52.625C44.9167 51.7708 43.5 50.8021 42.3125 49.7188C41.1458 48.6146 40.2292 47.3229 39.5625 45.8438C38.9167 44.3646 38.5938 42.6042 38.5938 40.5625C38.5938 37.0417 39.7188 34.1562 41.9688 31.9062C44.2188 29.6562 47.2083 28.3438 50.9375 27.9688V21.2812H55.9375V28.0625C59.625 28.5833 62.5104 30.125 64.5938 32.6875C66.6771 35.2292 67.7188 38.5312 67.7188 42.5938H58.6875C58.6875 40.0938 58.1667 38.2292 57.125 37C56.1042 35.75 54.7292 35.125 53 35.125C51.2917 35.125 49.9688 35.6146 49.0312 36.5938C48.0938 37.5521 47.625 38.8854 47.625 40.5938C47.625 42.1771 48.0833 43.4479 49 44.4062C49.9167 45.3646 51.6146 46.3438 54.0938 47.3438C56.5938 48.3438 58.6458 49.2917 60.25 50.1875C61.8542 51.0625 63.2083 52.0625 64.3125 53.1875C65.4167 54.2917 66.2604 55.5625 66.8438 57C67.4271 58.4167 67.7188 60.0729 67.7188 61.9688C67.7188 65.5104 66.6146 68.3854 64.4062 70.5938C62.1979 72.8021 59.1562 74.1042 55.2812 74.5V80.7188H50.3125V74.5312C46.0417 74.0729 42.7292 72.5625 40.375 70C38.0417 67.4167 36.875 63.9896 36.875 59.7188H45.9062C45.9062 62.1979 46.4896 64.1042 47.6562 65.4375C48.8438 66.75 50.5417 67.4062 52.75 67.4062C54.5833 67.4062 56.0312 66.9271 57.0938 65.9688C58.1562 64.9896 58.6875 63.6771 58.6875 62.0312Z" fill="black"/>
</svg>
