<svg width="108" height="112" viewBox="0 0 108 112" fill="none" xmlns="http://www.w3.org/2000/svg">
<mask id="path-1-inside-1" fill="white">
<rect x="13" y="11" width="83" height="83" rx="3"/>
</mask>
<rect x="13" y="11" width="83" height="83" rx="3" stroke="black" stroke-width="10" mask="url(#path-1-inside-1)"/>
<line x1="25.1315" y1="110.339" x2="41.1315" y2="92.3391" stroke="black" stroke-width="5"/>
<line y1="-2.5" x2="24.0832" y2="-2.5" transform="matrix(-0.664364 -0.747409 -0.747409 0.664364 79 112)" stroke="black" stroke-width="5"/>
<rect x="2.5" y="2.5" width="103" height="10" rx="2.5" stroke="black" stroke-width="5"/>
<circle cx="35.5" cy="34.5" r="11" stroke="black" stroke-width="3"/>
<line x1="57" y1="25.5" x2="85.0713" y2="25.5" stroke="black" stroke-width="3"/>
<line x1="24" y1="33.5" x2="37" y2="33.5" stroke="black" stroke-width="3"/>
<line x1="35.9393" y1="33.9393" x2="42.9393" y2="26.9393" stroke="black" stroke-width="3"/>
<line x1="36.4926" y1="33.8507" x2="37.4926" y2="43.8507" stroke="black" stroke-width="3"/>
<line x1="24" y1="69.5" x2="39" y2="69.5" stroke="black" stroke-width="3"/>
<line x1="24" y1="75.5" x2="44" y2="75.5" stroke="black" stroke-width="3"/>
<line x1="57.5" y1="84" x2="57.5" y2="72" stroke="black" stroke-width="3"/>
<line x1="62.5" y1="84" x2="62.5" y2="67" stroke="black" stroke-width="3"/>
<line x1="67.5" y1="84.0475" x2="67.5" y2="62.9525" stroke="black" stroke-width="3"/>
<line x1="72.5" y1="84" x2="72.5" y2="72" stroke="black" stroke-width="3"/>
<line x1="77.5" y1="84" x2="77.5" y2="76" stroke="black" stroke-width="3"/>
<line x1="27" y1="81.5" x2="47" y2="81.5" stroke="black" stroke-width="3"/>
<line x1="56.8759" y1="32" x2="75.1241" y2="32" stroke="black" stroke-width="3"/>
<line x1="57" y1="38.5" x2="80" y2="38.5" stroke="black" stroke-width="3"/>
<line x1="62" y1="45.5" x2="85" y2="45.5" stroke="black" stroke-width="3"/>
<line x1="57" y1="45.5" x2="60" y2="45.5" stroke="black" stroke-width="3"/>
<line x1="23" y1="81.5" x2="26" y2="81.5" stroke="black" stroke-width="3"/>
</svg>
