<?xml version="1.0" encoding="iso-8859-1"?>
<svg xmlns="http://www.w3.org/2000/svg" height="25px" width="25px" viewBox="0 0 512 512">
		<path fill="red" d="M220.82,0c-54.655,0-99.118,44.464-99.118,99.119c0,54.653,44.464,99.118,99.118,99.118s99.119-44.464,99.119-99.118C319.939,44.464,275.475,0,220.82,0z M220.82,168.237c-38.112,0-69.118-31.006-69.118-69.118C151.702,61.006,182.708,30,220.82,30s69.119,31.006,69.119,69.119C289.939,137.231,258.932,168.237,220.82,168.237z"/>
		<path fill="red" d="M354.315,318.023v-23.922c0-41.355-33.645-75-75-75H162.326c-41.355,0-75,33.645-75,75v146.99c0,24.813,20.187,45,45,45h126.48C276.434,502.176,299.868,512,325.556,512c54.654,0,99.118-44.464,99.118-99.119C424.674,368.226,394.988,330.379,354.315,318.023z M236.363,456.09H132.326c-8.271,0.001-15-6.728-15-14.999v-146.99c0-24.813,20.187-45,45-45h116.989c24.813,0,45,20.187,45,45v19.678c-54.084,0.668-97.878,44.863-97.878,99.102C226.437,428.362,230.007,443.024,236.363,456.09z M256.438,412.882c0-38.112,31.006-69.118,69.118-69.118c13.637,0,26.353,3.986,37.076,10.831l-95.364,95.362C260.424,439.234,256.438,426.519,256.438,412.882z M325.556,482c-13.637,0-26.353-3.986-37.075-10.83l95.363-95.363c6.844,10.722,10.83,23.438,10.83,37.074C394.674,450.994,363.668,482,325.556,482z"/>
</svg>