<svg id="Calque_1" data-name="Calque 1" xmlns="http://www.w3.org/2000/svg" viewBox="0 0 1921 1081"><defs><style>.cls-1{fill:#eeb81d;stroke:#1d1d1b;stroke-miterlimit:10;}.cls-2{fill:#fff;}</style></defs><title>intro</title><rect class="cls-1" x="0.5" y="0.5" width="1920" height="1080"/><path class="cls-2" d="M834.9,569.2H801.5v-10h11.3v-50H801.5v-10h33.4v10H823.6v50h11.3Z" transform="translate(-1.06 2.06)"/><path class="cls-2" d="M900.8,499.2h10.8v70h-9.9L861,515.8q.6,6.11,1.15,12.15t.55,12.15v29.1H851.9v-70h9.7l40.7,54.5q-.9-7.31-1.2-15.75t-.3-15.75Z" transform="translate(-1.06 2.06)"/><path class="cls-2" d="M944.5,569.2V509.6H924.9V499.2h50.6v10.4H955.3v59.6Z" transform="translate(-1.06 2.06)"/><path class="cls-2" d="M1040.7,521.5a20.1,20.1,0,0,1-3.75,11.7,22.57,22.57,0,0,1-9.75,8l16.3,28.1-13.1-.1-14.8-26.3h-16v26.3H988.8v-70h29.8a22.11,22.11,0,0,1,10.55,2.7,22.49,22.49,0,0,1,8.3,7.7A21.4,21.4,0,0,1,1040.7,521.5Zm-23.9-11.9H999.6v22.9h20a8.9,8.9,0,0,0,7.45-3.4,12.24,12.24,0,0,0,2.65-7.7,10.64,10.64,0,0,0-3.8-8.65A13.82,13.82,0,0,0,1016.8,509.6Z" transform="translate(-1.06 2.06)"/><path class="cls-2" d="M1120.9,534.2a39.5,39.5,0,0,1-2.5,14.15,34.16,34.16,0,0,1-7.15,11.45,33.4,33.4,0,0,1-10.9,7.65,33.83,33.83,0,0,1-13.75,2.75,34.18,34.18,0,0,1-13.8-2.75,32.58,32.58,0,0,1-10.9-7.65,34.36,34.36,0,0,1-7.1-11.45,41.29,41.29,0,0,1,0-28.3,34.36,34.36,0,0,1,7.1-11.45,32.58,32.58,0,0,1,10.9-7.65,34.18,34.18,0,0,1,13.8-2.75,33.83,33.83,0,0,1,13.75,2.75,33.4,33.4,0,0,1,10.9,7.65,34.16,34.16,0,0,1,7.15,11.45A39.5,39.5,0,0,1,1120.9,534.2Zm-11,0a27.77,27.77,0,0,0-3-13.05,23.41,23.41,0,0,0-8.25-9.1,23.53,23.53,0,0,0-24.2,0,23,23,0,0,0-8.2,9.1,30.34,30.34,0,0,0,0,26.1,23,23,0,0,0,8.2,9.1,23.53,23.53,0,0,0,24.2,0,23.28,23.28,0,0,0,8.25-9.15A27.88,27.88,0,0,0,1109.9,534.2Z" transform="translate(-1.06 2.06)"/></svg>