<svg id="Calque_1" data-name="Calque 1" xmlns="http://www.w3.org/2000/svg" viewBox="0 0 1921 1081"><defs><style>.cls-1{fill:#eeb81d;stroke:#1d1d1b;stroke-miterlimit:10;}.cls-2{fill:#fff;}</style></defs><title>outro</title><rect class="cls-1" x="0.5" y="0.5" width="1920" height="1080"/><path class="cls-2" d="M867.7,534.2a39.28,39.28,0,0,1-2.5,14.15,34.16,34.16,0,0,1-7.15,11.45,33.3,33.3,0,0,1-10.9,7.65,33.83,33.83,0,0,1-13.75,2.75,34.18,34.18,0,0,1-13.8-2.75,32.68,32.68,0,0,1-10.9-7.65,34.52,34.52,0,0,1-7.1-11.45,41.29,41.29,0,0,1,0-28.3,34.52,34.52,0,0,1,7.1-11.45A32.68,32.68,0,0,1,819.6,501a34.18,34.18,0,0,1,13.8-2.75A33.83,33.83,0,0,1,847.15,501a33.3,33.3,0,0,1,10.9,7.65,34.16,34.16,0,0,1,7.15,11.45A39.28,39.28,0,0,1,867.7,534.2Zm-11,0a27.77,27.77,0,0,0-3-13.05,23.41,23.41,0,0,0-8.25-9.1,23.53,23.53,0,0,0-24.2,0,23.07,23.07,0,0,0-8.2,9.1,30.34,30.34,0,0,0,0,26.1,23.07,23.07,0,0,0,8.2,9.1,23.53,23.53,0,0,0,24.2,0,23.28,23.28,0,0,0,8.25-9.15A27.88,27.88,0,0,0,856.7,534.2Z" transform="translate(-1.06 2.06)"/><path class="cls-2" d="M937.7,499.1v43.2a27.57,27.57,0,0,1-3.65,14.15,26.15,26.15,0,0,1-10,9.8,31.49,31.49,0,0,1-29,0,26,26,0,0,1-10-9.8,27.57,27.57,0,0,1-3.65-14.15V499.1h10.8v42.3a17.8,17.8,0,0,0,8.9,15.7,16.83,16.83,0,0,0,8.5,2.3,17.92,17.92,0,0,0,8.9-2.3,17.49,17.49,0,0,0,6.55-6.4,17.79,17.79,0,0,0,2.45-9.3V499.1Z" transform="translate(-1.06 2.06)"/><path class="cls-2" d="M969.6,569.2V509.6H950V499.2h50.6v10.4H980.4v59.6Z" transform="translate(-1.06 2.06)"/><path class="cls-2" d="M1065.8,521.5a20.1,20.1,0,0,1-3.75,11.7,22.57,22.57,0,0,1-9.75,8l16.3,28.1-13.1-.1-14.8-26.3h-16v26.3h-10.8v-70h29.8a22.11,22.11,0,0,1,10.55,2.7,22.49,22.49,0,0,1,8.3,7.7A21.4,21.4,0,0,1,1065.8,521.5Zm-23.9-11.9h-17.2v22.9h20a8.9,8.9,0,0,0,7.45-3.4,12.24,12.24,0,0,0,2.65-7.7,10.64,10.64,0,0,0-3.8-8.65A13.82,13.82,0,0,0,1041.9,509.6Z" transform="translate(-1.06 2.06)"/><path class="cls-2" d="M1146,534.2a39.5,39.5,0,0,1-2.5,14.15,34.16,34.16,0,0,1-7.15,11.45,33.4,33.4,0,0,1-10.9,7.65,33.83,33.83,0,0,1-13.75,2.75,34.18,34.18,0,0,1-13.8-2.75,32.58,32.58,0,0,1-10.9-7.65,34.36,34.36,0,0,1-7.1-11.45,41.29,41.29,0,0,1,0-28.3,34.36,34.36,0,0,1,7.1-11.45,32.58,32.58,0,0,1,10.9-7.65,34.18,34.18,0,0,1,13.8-2.75,33.83,33.83,0,0,1,13.75,2.75,33.4,33.4,0,0,1,10.9,7.65,34.16,34.16,0,0,1,7.15,11.45A39.5,39.5,0,0,1,1146,534.2Zm-11,0a27.77,27.77,0,0,0-3-13.05,23.41,23.41,0,0,0-8.25-9.1,23.53,23.53,0,0,0-24.2,0,23,23,0,0,0-8.2,9.1,30.34,30.34,0,0,0,0,26.1,23,23,0,0,0,8.2,9.1,23.53,23.53,0,0,0,24.2,0,23.28,23.28,0,0,0,8.25-9.15A27.88,27.88,0,0,0,1135,534.2Z" transform="translate(-1.06 2.06)"/></svg>